<svg width="15" height="15" viewBox="0 0 15 15" fill="none" xmlns="http://www.w3.org/2000/svg">
<path d="M14.1721 0.261633H0.827917C0.370625 0.261633 0 0.607616 0 1.0345V13.4916C0 13.9183 0.370625 14.2643 0.827917 14.2643H8.01188V8.84178H6.05708V6.72854H8.01188V5.16996C8.01188 3.36128 9.19521 2.37662 10.9235 2.37662C11.7515 2.37662 12.4629 2.43399 12.6704 2.45986V4.35003L11.4717 4.35061C10.5317 4.35061 10.3498 4.76758 10.3498 5.37942V6.72873H12.5915L12.2996 8.84197H10.3498V14.2643H14.1723C14.6294 14.2643 15 13.9183 15 13.4914V1.0345C15 0.607616 14.6294 0.261633 14.1721 0.261633Z" fill="white"/>
</svg>
