<svg width="15" height="5" viewBox="0 0 15 5" fill="none" xmlns="http://www.w3.org/2000/svg">
<path d="M13.5417 0.261633H1.45833C0.65625 0.261633 0 0.865858 0 1.60436V4.2898H4.51354C5.19646 3.45559 6.27812 2.91409 7.5 2.91409C8.72188 2.91409 9.80354 3.45559 10.4865 4.2898H15V1.60436C15 0.865858 14.3438 0.261633 13.5417 0.261633ZM1.19917 3.65987H0.65625V1.72348C0.65625 1.38473 0.880417 1.0945 1.19937 0.971166L1.19917 3.65987ZM2.08875 3.65987H1.57437V0.907675H2.08875V3.65987ZM2.97812 3.65987H2.46375V0.907675H2.97812V3.65987ZM3.86688 1.72348V2.84407V3.65987H3.35312V0.907675H3.86688V1.72348ZM14.2398 2.84407C14.2398 3.29484 13.8431 3.65987 13.3542 3.65987H11.9148C11.4256 3.65987 11.029 3.29484 11.029 2.84407V1.72348C11.029 1.2727 11.4256 0.907675 11.9148 0.907675H13.3542C13.8433 0.907675 14.2398 1.2727 14.2398 1.72348V2.84407Z" fill="white"/>
</svg>
