<svg width="15" height="15" viewBox="0 0 15 15" fill="none" xmlns="http://www.w3.org/2000/svg">
<path d="M13.889 0.261633H1.10729C0.496042 0.261633 0 0.713803 0 1.2706V13.254C0 13.8116 0.496042 14.2643 1.10729 14.2643H13.889C14.5006 14.2643 15 13.8116 15 13.254V1.2706C15 0.713803 14.5006 0.261633 13.889 0.261633ZM4.44875 12.1939H2.22292V5.51167H4.44875V12.1939ZM3.33583 4.59799C2.62271 4.59799 2.04625 4.0585 2.04625 3.39337C2.04625 2.72922 2.62271 2.18973 3.33583 2.18973C4.04729 2.18973 4.62521 2.72922 4.62521 3.39337C4.62521 4.0585 4.04729 4.59799 3.33583 4.59799ZM12.7812 12.1939H10.559V8.94447C10.559 8.16926 10.5427 7.17254 9.4025 7.17254C8.24458 7.17254 8.06812 8.01679 8.06812 8.88826V12.1941H5.84417V5.51167H7.97854V6.42418H8.00896C8.30604 5.89908 9.03187 5.345 10.1144 5.345C12.3656 5.345 12.7815 6.72854 12.7815 8.52847L12.7812 12.1939Z" fill="white"/>
</svg>
