<svg width="15" height="15" viewBox="0 0 15 15" fill="none" xmlns="http://www.w3.org/2000/svg">
<path d="M14.9956 0.599891C14.9745 0.344402 14.8023 0.144401 14.5885 0.137084V0.135661H5.77064C5.55147 0.135661 5.37331 0.339727 5.35181 0.599891H5.34747V3.27043H9.07114C9.26681 3.27043 9.42564 3.45255 9.44497 3.68487H9.44881V9.62636H11.2836L12.365 10.9449C12.441 11.0825 12.5698 11.1729 12.716 11.1729C12.9496 11.1729 13.139 10.942 13.139 10.6573V9.62636H14.5886V9.62473C14.7881 9.61803 14.9533 9.44404 14.9915 9.21274H15V0.599891H14.9956Z" fill="white"/>
<path d="M8.24 4.28409H0.367333V4.28531C0.176667 4.29161 0.0228333 4.47027 0.00383329 4.69853H0V12.3886H0.00766667C0.0418333 12.5949 0.189333 12.7502 0.367333 12.7563V12.7575H1.6615V13.678C1.6615 13.9321 1.83067 14.1384 2.03917 14.1384C2.16967 14.1384 2.28483 14.0575 2.3525 13.9348L3.31783 12.7575H8.24C8.42267 12.7575 8.57517 12.599 8.61 12.3886H8.6175V4.69853H8.61367C8.59467 4.466 8.43567 4.28409 8.24 4.28409Z" fill="white"/>
</svg>
