<svg width="15" height="15" viewBox="0 0 15 15" fill="none" xmlns="http://www.w3.org/2000/svg">
<path d="M7.50019 0.261633C3.35846 0.261633 0 3.39628 0 7.2628C0 10.1296 1.84673 12.5922 4.48942 13.675C4.46827 13.1862 4.48538 12.599 4.62 12.0678C4.76423 11.4991 5.585 8.25281 5.585 8.25281C5.585 8.25281 5.34539 7.80582 5.34539 7.14522C5.34539 6.10781 5.98962 5.3325 6.79154 5.3325C7.47365 5.3325 7.80327 5.81072 7.80327 6.38355C7.80327 7.02369 7.36615 7.98049 7.14115 8.868C6.95308 9.611 7.54019 10.2165 8.325 10.2165C9.74596 10.2165 10.7029 8.51292 10.7029 6.49412C10.7029 4.96019 9.59596 3.81167 7.58231 3.81167C5.30712 3.81167 3.88981 5.39533 3.88981 7.16424C3.88981 7.77459 4.0825 8.20452 4.38442 8.53716C4.52308 8.69028 4.54231 8.75185 4.49212 8.92778C4.45615 9.05649 4.37346 9.3665 4.33942 9.48947C4.28962 9.66683 4.13577 9.73002 3.96385 9.66467C2.91596 9.26526 2.42788 8.19411 2.42788 6.98994C2.42788 5.00094 4.22462 2.61648 7.78808 2.61648C10.6517 2.61648 12.5363 4.55072 12.5363 6.6275C12.5363 9.3735 10.9006 11.4253 8.48942 11.4253C7.68 11.4253 6.91827 11.0166 6.65731 10.5527C6.65731 10.5527 6.22192 12.1655 6.12981 12.4775C5.97077 13.0172 5.65942 13.5569 5.37481 13.9771C6.04942 14.1629 6.76192 14.2643 7.50038 14.2643C11.6419 14.264 15 11.1291 15 7.2628C15 3.39628 11.6419 0.261633 7.50019 0.261633Z" fill="white"/>
</svg>
