<svg width="15" height="15" viewBox="0 0 15 15" fill="none" xmlns="http://www.w3.org/2000/svg">
<path d="M15 2.10354C14.4481 2.3846 13.8552 2.57458 13.2326 2.65983C13.8678 2.22236 14.356 1.52957 14.5855 0.704524C13.9909 1.10955 13.3321 1.40403 12.6315 1.56201C12.0702 0.875485 11.2704 0.445845 10.3852 0.445845C8.68583 0.445845 7.30783 2.02835 7.30783 3.98098C7.30783 4.25778 7.3351 4.52787 7.3877 4.78678C4.83001 4.63931 2.56256 3.23179 1.0447 1.09277C0.779775 1.61505 0.628027 2.22259 0.628027 2.87018C0.628027 4.09667 1.17132 5.17837 1.99707 5.81254C1.49273 5.79397 1.01821 5.63487 0.603288 5.37037C0.602899 5.38514 0.602899 5.39968 0.602899 5.4149C0.602899 7.12719 1.66357 8.55597 3.07118 8.88111C2.81307 8.96144 2.54133 9.00486 2.26063 9.00486C2.06213 9.00486 1.86947 8.98293 1.68149 8.94153C2.07304 10.3457 3.20949 11.3681 4.55612 11.3967C3.50285 12.3446 2.17608 12.9101 0.734192 12.9101C0.485825 12.9101 0.240965 12.8935 0 12.8607C1.36183 13.8636 2.97943 14.4485 4.71722 14.4485C10.3776 14.4485 13.473 9.06214 13.473 4.39115C13.473 4.23809 13.4699 4.08525 13.464 3.93331C14.0658 3.4352 14.5876 2.81245 15 2.10354Z" fill="white"/>
</svg>
