<svg width="15" height="15" viewBox="0 0 15 15" fill="none" xmlns="http://www.w3.org/2000/svg">
<path d="M6.49791 11.2287C6.35291 11.4201 6.21562 11.5144 6.08437 11.5144C5.99687 11.5144 5.94707 11.4666 5.93124 11.3717C5.92499 11.352 5.92499 11.2775 5.92499 11.1344V8.6528H5.27124V11.318C5.27124 11.5562 5.29291 11.7169 5.32895 11.819C5.39416 11.9897 5.53957 12.0696 5.75041 12.0696C5.99082 12.0696 6.23791 11.9341 6.4977 11.6556V12.0234H7.15249V8.65299H6.49791V11.2287Z" fill="white"/>
<path d="M2.8952 8.13645H3.66479V12.0232H4.39229V8.13645H5.17604V7.49972H2.8952V8.13645Z" fill="white"/>
<path d="M7.3502 5.18972C7.56333 5.18972 7.66541 5.03219 7.66541 4.71693V3.28399C7.66541 2.96913 7.56333 2.81218 7.3502 2.81218C7.13687 2.81218 7.03458 2.96913 7.03458 3.28399V4.71693C7.03478 5.03199 7.13687 5.18972 7.3502 5.18972Z" fill="white"/>
<path d="M9.04875 8.61157C8.80833 8.61157 8.58417 8.73448 8.37313 8.9772V7.49972H7.71875V12.0232H8.37313V11.6961C8.59146 11.9487 8.81625 12.0695 9.04875 12.0695C9.30937 12.0695 9.48438 11.9415 9.57188 11.6908C9.61542 11.5479 9.63771 11.3234 9.63771 11.0117V9.66955C9.63771 9.3506 9.61542 9.12772 9.57188 8.99217C9.48417 8.73954 9.30937 8.61157 9.04875 8.61157ZM8.98354 11.0595C8.98354 11.3639 8.8875 11.514 8.69896 11.514C8.59146 11.514 8.48229 11.4662 8.37292 11.3641V9.30956C8.48229 9.20902 8.59125 9.16118 8.69896 9.16118C8.88771 9.16118 8.98354 9.31715 8.98354 9.62112V11.0595Z" fill="white"/>
<path d="M11.1323 8.61183C10.7985 8.61183 10.5377 8.72677 10.349 8.95762C10.2098 9.12779 10.1467 9.39112 10.1467 9.7511V10.932C10.1467 11.2898 10.2179 11.5561 10.3569 11.7243C10.5458 11.9544 10.8063 12.0695 11.1488 12.0695C11.4904 12.0695 11.7585 11.9487 11.9398 11.7045C12.019 11.5958 12.0706 11.4734 12.0925 11.3383C12.0983 11.277 12.1065 11.1413 12.1065 10.9448V10.8554H11.4388C11.4388 11.1004 11.4306 11.236 11.4246 11.2692C11.3873 11.4324 11.2931 11.5141 11.1323 11.5141C10.9077 11.5141 10.7985 11.3585 10.7985 11.0465V10.4491H12.1067V9.75091C12.1067 9.39073 12.041 9.1276 11.9042 8.95742C11.721 8.72657 11.4606 8.61183 11.1323 8.61183ZM11.4525 9.94092H10.7985V9.62916C10.7985 9.3176 10.9077 9.16163 11.1265 9.16163C11.3429 9.16163 11.4525 9.3176 11.4525 9.62916V9.94092Z" fill="white"/>
<path d="M13.5417 0.261633H1.45833C0.65625 0.261633 0 0.87425 0 1.62301V12.9029C0 13.6517 0.65625 14.2643 1.45833 14.2643H13.5417C14.3438 14.2643 15 13.6517 15 12.9029V1.62301C15 0.87425 14.3438 0.261633 13.5417 0.261633ZM8.87083 2.29786H9.52979V4.80512C9.52979 4.9502 9.52979 5.02546 9.53792 5.0453C9.5525 5.14099 9.60417 5.1898 9.69292 5.1898C9.825 5.1898 9.96396 5.09412 10.1104 4.9008V2.29786H10.7717V5.70323H10.1104V5.33177C9.84729 5.61358 9.59625 5.75049 9.35521 5.75049C9.14229 5.75049 8.99542 5.66978 8.92937 5.49708C8.89292 5.3942 8.87083 5.23103 8.87083 4.99065V2.29786ZM6.37354 3.40796C6.37354 3.04408 6.44 2.77784 6.58063 2.60572C6.76354 2.37312 7.02104 2.25663 7.35021 2.25663C7.68146 2.25663 7.93854 2.37312 8.12167 2.60572C8.26 2.77784 8.32687 3.04408 8.32687 3.40796V4.6011C8.32687 4.96284 8.26021 5.23123 8.12167 5.40217C7.93854 5.63419 7.68167 5.75069 7.35021 5.75069C7.02083 5.75069 6.76333 5.63419 6.58063 5.40217C6.44 5.23123 6.37354 4.96284 6.37354 4.6011V3.40796ZM4.60562 1.1333L5.12625 2.92778L5.62604 1.1333H6.36729L5.48563 3.85254V5.70323H4.75229V3.85254C4.68604 3.52426 4.53937 3.04389 4.30437 2.40657C4.14979 1.9826 3.98875 1.55669 3.83437 1.1333H4.60562ZM12.7235 12.2258C12.5915 12.7631 12.1202 13.1595 11.5535 13.2184C10.211 13.3584 8.8525 13.3592 7.5 13.3584C6.14729 13.3592 4.78875 13.3584 3.44646 13.2184C2.87958 13.1593 2.40917 12.7629 2.27688 12.2258C2.08833 11.4603 2.08833 10.6248 2.08833 9.83714C2.08833 9.04871 2.09042 8.2138 2.27917 7.44812C2.41125 6.91096 2.88188 6.5148 3.44875 6.45568C4.79104 6.31527 6.14958 6.31488 7.50229 6.31527C8.85479 6.31488 10.2133 6.31527 11.5558 6.45568C12.1223 6.5148 12.5933 6.91096 12.7256 7.44812C12.9142 8.21399 12.9131 9.04871 12.9131 9.83714C12.9133 10.6248 12.9123 11.4603 12.7235 12.2258Z" fill="white"/>
</svg>
